<svg width="124" height="124" viewBox="0 0 124 124" fill="none" xmlns="http://www.w3.org/2000/svg">
<path d="M103.158 2.7829C104.266 1.26573 106.224 0.631868 108.008 1.21357C109.795 1.7954 111 3.45949 111 5.33759V98.1794C111 112.225 99.5729 123.654 85.5283 123.654H49.3271C29.2941 123.654 13 107.354 13 87.322C13.0003 67.2905 29.2978 50.991 49.3271 50.9909V50.9948H67.9941L103.158 2.7829ZM46.3281 82.4157C44.2467 80.3342 40.8724 80.3341 38.791 82.4157C36.7096 84.4973 36.7096 87.8722 38.791 89.9538C40.8724 92.0354 44.2467 92.0354 46.3281 89.9538C48.4095 87.8722 48.4095 84.4973 46.3281 82.4157ZM83.8906 81.445C81.2759 80.0931 78.0608 81.1171 76.709 83.7321C75.3572 86.3471 76.3805 89.5627 78.9951 90.9147C81.6099 92.2668 84.8258 91.2427 86.1777 88.6276C87.5293 86.0127 86.5053 82.797 83.8906 81.445ZM63.3838 80.987C60.5382 80.2273 57.6155 81.9186 56.8555 84.7643C56.0956 87.6103 57.7863 90.5335 60.6318 91.2936C63.4776 92.0536 66.4013 90.3624 67.1611 87.5163C67.9207 84.6704 66.2294 81.7469 63.3838 80.987Z" fill="#FF0073"/>
</svg>
