<svg width="179" height="58" viewBox="0 0 179 58" fill="none" xmlns="http://www.w3.org/2000/svg">
<path d="M35.8789 0.709943C36.3196 0.106059 37.0998 -0.14657 37.8096 0.0849426C38.5205 0.316584 39 0.979165 39 1.72654V38.6738C38.9998 44.2634 34.4524 48.8115 28.8633 48.8115H14.457C6.48467 48.8115 0 42.3243 0 34.3525C0.000206903 26.3809 6.48619 19.8945 14.457 19.8945V19.8955H21.8857L35.8789 0.709943ZM13.2637 32.4004C12.4354 31.572 11.092 31.572 10.2637 32.4004C9.43547 33.2288 9.43539 34.572 10.2637 35.4004C11.092 36.2287 12.4354 36.2287 13.2637 35.4004C14.0919 34.572 14.0917 33.2288 13.2637 32.4004ZM28.2119 32.0137C27.1714 31.4756 25.8916 31.8832 25.3535 32.9238C24.8155 33.9645 25.2231 35.2442 26.2637 35.7822C27.3042 36.3202 28.5841 35.9127 29.1221 34.8721C29.6597 33.8315 29.2522 32.5517 28.2119 32.0137ZM20.0508 31.832C18.9183 31.5296 17.7545 32.2023 17.4521 33.3349C17.1498 34.4676 17.8236 35.6311 18.9561 35.9336C20.0883 36.2357 21.2512 35.5629 21.5537 34.4306C21.8561 33.298 21.1833 32.1345 20.0508 31.832Z" fill="#FF0073"/>
<path d="M53.2667 48.5C51.8444 48.5 50.5222 48.2222 49.3 47.6666C48.0778 47.1111 47 46.3444 46.0667 45.3666C45.1333 44.3889 44.4 43.2444 43.8667 41.9333C43.3333 40.6222 43.0667 39.2333 43.0667 37.7666C43.0667 36.2777 43.3333 34.8889 43.8667 33.6C44.4 32.2889 45.1333 31.1444 46.0667 30.1666C47 29.1666 48.0778 28.3889 49.3 27.8333C50.5222 27.2777 51.8444 27 53.2667 27C54.4667 27 55.5556 27.2 56.5333 27.6C57.5333 27.9777 58.3889 28.5333 59.1 29.2666V27.5H65.1V48H59.1V46.2333C58.3889 46.9444 57.5333 47.5 56.5333 47.9C55.5556 48.3 54.4667 48.5 53.2667 48.5ZM54.1 42.0666C54.9 42.0666 55.6111 41.8777 56.2333 41.5C56.8778 41.1 57.3889 40.5777 57.7667 39.9333C58.1444 39.2889 58.3333 38.5666 58.3333 37.7666C58.3333 36.9444 58.1444 36.2111 57.7667 35.5666C57.3889 34.9222 56.8778 34.4111 56.2333 34.0333C55.6111 33.6333 54.9111 33.4333 54.1333 33.4333C53.3333 33.4333 52.6111 33.6333 51.9667 34.0333C51.3444 34.4111 50.8444 34.9222 50.4667 35.5666C50.0889 36.2111 49.9 36.9333 49.9 37.7333C49.9 38.5555 50.0889 39.2889 50.4667 39.9333C50.8444 40.5777 51.3444 41.1 51.9667 41.5C52.6111 41.8777 53.3222 42.0666 54.1 42.0666ZM68.2937 48V27.5H75.5937V48H68.2937ZM71.927 25.3333C71.2382 25.3333 70.6159 25.1666 70.0604 24.8333C69.5048 24.5 69.0604 24.0555 68.727 23.5C68.3937 22.9444 68.227 22.3222 68.227 21.6333C68.227 20.9222 68.3937 20.2889 68.727 19.7333C69.0604 19.1777 69.5048 18.7444 70.0604 18.4333C70.6159 18.1222 71.2382 17.9666 71.927 17.9666C72.6382 17.9666 73.2715 18.1222 73.827 18.4333C74.3826 18.7444 74.8159 19.1777 75.127 19.7333C75.4604 20.2889 75.627 20.9222 75.627 21.6333C75.627 22.3222 75.4604 22.9555 75.127 23.5333C74.8159 24.0889 74.3826 24.5333 73.827 24.8666C73.2715 25.1777 72.6382 25.3333 71.927 25.3333ZM78.826 48V16H86.126V48H78.826ZM89.3582 48V27.5H96.6582V48H89.3582ZM92.9915 25.3333C92.3027 25.3333 91.6804 25.1666 91.1249 24.8333C90.5693 24.5 90.1249 24.0555 89.7915 23.5C89.4582 22.9444 89.2915 22.3222 89.2915 21.6333C89.2915 20.9222 89.4582 20.2889 89.7915 19.7333C90.1249 19.1777 90.5693 18.7444 91.1249 18.4333C91.6804 18.1222 92.3027 17.9666 92.9915 17.9666C93.7027 17.9666 94.336 18.1222 94.8915 18.4333C95.4471 18.7444 95.8804 19.1777 96.1915 19.7333C96.5249 20.2889 96.6915 20.9222 96.6915 21.6333C96.6915 22.3222 96.5249 22.9555 96.1915 23.5333C95.8804 24.0889 95.4471 24.5333 94.8915 24.8666C94.336 25.1777 93.7027 25.3333 92.9915 25.3333ZM101.79 48V33.2H98.6571V27.5H101.89V23.1333C101.89 21.5111 102.213 20.1444 102.857 19.0333C103.502 17.9 104.402 17.0444 105.557 16.4666C106.735 15.8889 108.09 15.6 109.624 15.6C110.49 15.6 111.279 15.6889 111.99 15.8666C112.702 16.0444 113.324 16.3 113.857 16.6333L112.457 22.3333C112.213 22.0222 111.924 21.8 111.59 21.6666C111.279 21.5111 110.957 21.4333 110.624 21.4333C110.335 21.4333 110.046 21.5111 109.757 21.6666C109.49 21.8 109.268 22.0222 109.09 22.3333C108.935 22.6444 108.857 23.0444 108.857 23.5333V27.5H112.257V33.2H108.957V48H101.79ZM113.4 57.5L120.233 43.7666L112.233 27.5H120.4L122.9 32.8666C123.144 33.4444 123.378 34.0111 123.6 34.5666C123.844 35.1222 124.066 35.7444 124.266 36.4333C124.489 35.7444 124.711 35.1222 124.933 34.5666C125.178 34.0111 125.433 33.4444 125.7 32.8666L128.233 27.5H136.1L121.4 57.5H113.4ZM138.083 48.6666C137.283 48.6666 136.561 48.4777 135.916 48.1C135.294 47.7222 134.794 47.2111 134.416 46.5666C134.039 45.9222 133.85 45.2 133.85 44.4C133.85 43.6 134.039 42.8889 134.416 42.2666C134.794 41.6222 135.294 41.1111 135.916 40.7333C136.561 40.3555 137.283 40.1666 138.083 40.1666C138.905 40.1666 139.628 40.3555 140.25 40.7333C140.894 41.1111 141.405 41.6222 141.783 42.2666C142.161 42.8889 142.35 43.6 142.35 44.4C142.35 45.2 142.161 45.9222 141.783 46.5666C141.405 47.2111 140.894 47.7222 140.25 48.1C139.628 48.4777 138.905 48.6666 138.083 48.6666ZM153.992 48.5C152.57 48.5 151.248 48.2222 150.026 47.6666C148.804 47.1111 147.726 46.3444 146.792 45.3666C145.859 44.3889 145.126 43.2444 144.592 41.9333C144.059 40.6222 143.792 39.2333 143.792 37.7666C143.792 36.2777 144.059 34.8889 144.592 33.6C145.126 32.2889 145.859 31.1444 146.792 30.1666C147.726 29.1666 148.804 28.3889 150.026 27.8333C151.248 27.2777 152.57 27 153.992 27C155.192 27 156.281 27.2 157.259 27.6C158.259 27.9777 159.115 28.5333 159.826 29.2666V27.5H165.826V48H159.826V46.2333C159.115 46.9444 158.259 47.5 157.259 47.9C156.281 48.3 155.192 48.5 153.992 48.5ZM154.826 42.0666C155.626 42.0666 156.337 41.8777 156.959 41.5C157.604 41.1 158.115 40.5777 158.492 39.9333C158.87 39.2889 159.059 38.5666 159.059 37.7666C159.059 36.9444 158.87 36.2111 158.492 35.5666C158.115 34.9222 157.604 34.4111 156.959 34.0333C156.337 33.6333 155.637 33.4333 154.859 33.4333C154.059 33.4333 153.337 33.6333 152.692 34.0333C152.07 34.4111 151.57 34.9222 151.192 35.5666C150.815 36.2111 150.626 36.9333 150.626 37.7333C150.626 38.5555 150.815 39.2889 151.192 39.9333C151.57 40.5777 152.07 41.1 152.692 41.5C153.337 41.8777 154.048 42.0666 154.826 42.0666ZM169.019 48V27.5H176.319V48H169.019ZM172.653 25.3333C171.964 25.3333 171.342 25.1666 170.786 24.8333C170.231 24.5 169.786 24.0555 169.453 23.5C169.119 22.9444 168.953 22.3222 168.953 21.6333C168.953 20.9222 169.119 20.2889 169.453 19.7333C169.786 19.1777 170.231 18.7444 170.786 18.4333C171.342 18.1222 171.964 17.9666 172.653 17.9666C173.364 17.9666 173.997 18.1222 174.553 18.4333C175.108 18.7444 175.542 19.1777 175.853 19.7333C176.186 20.2889 176.353 20.9222 176.353 21.6333C176.353 22.3222 176.186 22.9555 175.853 23.5333C175.542 24.0889 175.108 24.5333 174.553 24.8666C173.997 25.1777 173.364 25.3333 172.653 25.3333Z" fill="black"/>
</svg>
