<svg width="39" height="49" viewBox="0 0 39 49" fill="none" xmlns="http://www.w3.org/2000/svg">
<path d="M35.8789 0.70993C36.3196 0.106046 37.0998 -0.146582 37.8096 0.0849304C38.5205 0.316572 39 0.979153 39 1.72653V38.6738C38.9998 44.2634 34.4523 48.8115 28.8633 48.8115H14.457C6.48467 48.8115 0 42.3243 0 34.3525C0.000206903 26.3809 6.48619 19.8945 14.457 19.8945V19.8955H21.8857L35.8789 0.70993ZM13.2637 32.4004C12.4354 31.572 11.092 31.572 10.2637 32.4004C9.43547 33.2288 9.43539 34.572 10.2637 35.4004C11.092 36.2287 12.4354 36.2287 13.2637 35.4004C14.0919 34.572 14.0917 33.2288 13.2637 32.4004ZM28.2119 32.0136C27.1714 31.4756 25.8916 31.8832 25.3535 32.9238C24.8155 33.9645 25.2231 35.2441 26.2637 35.7822C27.3042 36.3202 28.5841 35.9127 29.1221 34.872C29.6597 33.8315 29.2522 32.5516 28.2119 32.0136ZM20.0508 31.832C18.9183 31.5296 17.7545 32.2023 17.4521 33.3349C17.1498 34.4676 17.8236 35.6311 18.9561 35.9336C20.0883 36.2357 21.2512 35.5629 21.5537 34.4306C21.8561 33.298 21.1833 32.1345 20.0508 31.832Z" fill="white"/>
</svg>
